<svg width="115" height="115" viewBox="0 0 115 115" fill="none" xmlns="http://www.w3.org/2000/svg">
<rect width="115" height="115" fill="black"/>
<path d="M45.6 56L38.45 45.25L32.15 56H22.45L33.7 38.15L22.2 20.9H32.15L39.2 31.5L45.4 20.9H55.1L43.95 38.6L55.55 56H45.6Z" fill="white"/>
<path d="M90.5 56H81.95L67.65 34.35V56H59.1V20.9H67.65L81.95 42.65V20.9H90.5V56Z" fill="white"/>
<path d="M37.25 58.9C40.95 58.9 44.1833 59.6333 46.95 61.1C49.7167 62.5667 51.85 64.6333 53.35 67.3C54.8833 69.9333 55.65 72.9833 55.65 76.45C55.65 79.8833 54.8833 82.9333 53.35 85.6C51.85 88.2667 49.7 90.3333 46.9 91.8C44.1333 93.2667 40.9167 94 37.25 94H24.1V58.9H37.25ZM36.7 86.6C39.9333 86.6 42.45 85.7167 44.25 83.95C46.05 82.1833 46.95 79.6833 46.95 76.45C46.95 73.2167 46.05 70.7 44.25 68.9C42.45 67.1 39.9333 66.2 36.7 66.2H32.65V86.6H36.7Z" fill="white"/>
<path d="M80 94L72.7 80.75H70.65V94H62.1V58.9H76.45C79.2167 58.9 81.5667 59.3833 83.5 60.35C85.4667 61.3167 86.9333 62.65 87.9 64.35C88.8667 66.0167 89.35 67.8833 89.35 69.95C89.35 72.2833 88.6833 74.3667 87.35 76.2C86.05 78.0333 84.1167 79.3333 81.55 80.1L89.65 94H80ZM70.65 74.7H75.95C77.5167 74.7 78.6833 74.3167 79.45 73.55C80.25 72.7833 80.65 71.7 80.65 70.3C80.65 68.9667 80.25 67.9167 79.45 67.15C78.6833 66.3833 77.5167 66 75.95 66H70.65V74.7Z" fill="white"/>
</svg>
